<?xml version="1.0" encoding="UTF-8"?>
<svg id="Layer_1" data-name="Layer 1" xmlns="http://www.w3.org/2000/svg" viewBox="0 0 230.29 49.49">
  <defs>
    <style>
      .cls-1 {
        fill: #fff;
      }

      .cls-2 {
        fill: #1ab680;
      }
    </style>
  </defs>
  <path class="cls-1" d="M0,.89h25.21c6.15,0,11.14,4.99,11.14,11.14h0c0,6.15-4.99,11.14-11.14,11.14H0V.89H0Z"/>
  <path class="cls-2" d="M0,27.2h25.21c6.15,0,11.14,4.99,11.14,11.14h0c0,6.15-4.99,11.14-11.14,11.14H0v-22.29H0Z" transform="translate(36.35 76.7) rotate(-180)"/>
  <g>
    <path class="cls-2" d="M79.81,49.35c-7.01,0-12.46-1.92-16.37-5.76-3.91-3.84-5.86-9.26-5.86-16.27V.95h13.42v25.96c0,4.02.79,6.91,2.37,8.68,1.58,1.76,3.77,2.64,6.58,2.64s4.98-.88,6.54-2.64c1.56-1.76,2.34-4.65,2.34-8.68V.95h13.29v26.37c0,7.01-1.98,12.43-5.93,16.27-3.95,3.84-9.41,5.76-16.37,5.76Z"/>
    <path class="cls-2" d="M111.26,48.4V.95h24.13c6.28,0,10.96,1.15,14.03,3.46,3.07,2.3,4.61,5.29,4.61,8.95,0,2.44-.63,4.59-1.9,6.44-1.27,1.85-3.07,3.3-5.42,4.34-2.35,1.04-5.11,1.56-8.27,1.56l1.29-3.25c3.3,0,6.2.51,8.71,1.53,2.51,1.02,4.45,2.5,5.83,4.44,1.38,1.94,2.07,4.27,2.07,6.98,0,4.07-1.66,7.25-4.98,9.56-3.32,2.31-8.19,3.46-14.61,3.46h-25.49ZM124.48,38.71h11.25c2.35,0,4.11-.4,5.29-1.19,1.17-.79,1.76-2,1.76-3.63s-.59-2.84-1.76-3.63c-1.18-.79-2.94-1.19-5.29-1.19h-12.2v-9.29h10.17c2.26,0,3.95-.38,5.08-1.15,1.13-.77,1.69-1.9,1.69-3.39,0-1.58-.57-2.75-1.69-3.49-1.13-.75-2.82-1.12-5.08-1.12h-9.22v28.06Z"/>
    <path class="cls-2" d="M163.32,48.4V.95h13.42v47.45h-13.42Z"/>
    <path class="cls-2" d="M209.89,49.35c-3.75,0-7.21-.6-10.37-1.8-3.16-1.2-5.92-2.89-8.27-5.08-2.35-2.19-4.18-4.8-5.49-7.83-1.31-3.03-1.97-6.35-1.97-9.96s.65-6.94,1.97-9.96c1.31-3.03,3.14-5.64,5.49-7.83,2.35-2.19,5.11-3.89,8.27-5.08,3.16-1.2,6.62-1.8,10.37-1.8,4.38,0,8.3.76,11.76,2.27,3.46,1.51,6.34,3.74,8.64,6.68l-8.54,7.73c-1.54-1.81-3.23-3.19-5.08-4.13-1.85-.95-3.89-1.42-6.1-1.42-1.94,0-3.73.32-5.36.95-1.63.63-3.02,1.55-4.17,2.75-1.15,1.2-2.06,2.63-2.71,4.3-.66,1.67-.98,3.52-.98,5.56s.33,3.89.98,5.56c.65,1.67,1.56,3.11,2.71,4.3,1.15,1.2,2.54,2.11,4.17,2.75,1.63.63,3.41.95,5.36.95,2.21,0,4.25-.48,6.1-1.42,1.85-.95,3.55-2.35,5.08-4.2l8.54,7.73c-2.3,2.94-5.19,5.18-8.64,6.71-3.46,1.54-7.38,2.3-11.76,2.3Z"/>
  </g>
</svg>